<svg width="331" height="191" viewBox="0 0 331 191" fill="none" xmlns="http://www.w3.org/2000/svg">
<g clip-path="url(#clip0_372_2)">
<path d="M165.525 13.3324H112.182V119.988H165.525C179.662 119.982 193.218 114.362 203.213 104.362C213.207 94.3619 218.822 80.8014 218.822 66.6622C218.823 52.5222 213.209 38.9607 203.214 28.9599C193.219 18.9591 179.663 13.3379 165.525 13.3324Z" fill="#194981"/>
<path d="M234.557 40.0862L232.14 50.483L242.535 52.9005L244.952 42.5037L234.557 40.0862Z" fill="#2AA4D7"/>
<path d="M244.955 42.507L242.536 52.9046L232.144 50.4858L244.955 42.507Z" fill="#205C84"/>
<path d="M205.198 31.0691L178.661 57.8537L138.439 13.3324L128.381 0H105.373L112.182 13.4521L152.017 107.762L218.818 66.5095C218.8 53.4211 213.95 40.8004 205.198 31.0691Z" fill="#F4F9F5"/>
<path d="M219.288 13.9075L219.757 26.2693L232.117 25.8009L231.648 13.439L219.288 13.9075Z" fill="#88448E"/>
<path d="M231.665 13.4397L232.132 25.8021L219.771 26.2686L231.665 13.4397Z" fill="#5A2B5E"/>
<path d="M222.355 58.2004L219.561 66.1622L227.521 68.9573L230.316 60.9955L222.355 58.2004Z" fill="#98BC4D"/>
<path d="M225.028 63.5278L219.561 66.1622L227.521 68.9573L230.316 60.9955L225.028 63.5278Z" fill="#266A43"/>
<path d="M203.566 21.306L204.943 31.048L214.684 29.6703L213.306 19.9283L203.566 21.306Z" fill="#E3A51A"/>
<path d="M209.243 25.3852L204.943 31.048L214.684 29.6703L213.306 19.9283L209.243 25.3852Z" fill="#D67C1C"/>
<path d="M219.825 38.0705L218.979 44.9823L225.89 45.8285L226.736 38.9167L219.825 38.0705Z" fill="#C40059"/>
<path d="M226.725 38.9076L225.879 45.8215L218.966 44.9753L226.725 38.9076Z" fill="#961137"/>
<path d="M236.297 26.2835L235.727 32.6145L242.058 33.1844L242.628 26.8534L236.297 26.2835Z" fill="#E09E4B"/>
<path d="M239.164 29.7199L235.727 32.6146L242.058 33.1845L242.628 26.8535L239.164 29.7199Z" fill="#973235"/>
<path d="M205.198 31.0691L178.731 66.7695L138.439 13.3324L128.381 0H105.373L112.182 13.4521L155.306 98.627L218.818 66.5095C218.8 53.4211 213.95 40.8004 205.198 31.0691Z" fill="url(#paint0_linear_372_2)"/>
<path d="M0 141.051H15.7531C30.0162 141.051 42.1375 146.496 42.1375 164.715C42.1375 183.583 29.8223 189.028 15.7531 189.028H0V141.051ZM16.467 178.589C26.2565 178.589 29.1743 174.568 29.1743 164.843C29.1743 155.961 26.1904 151.812 16.3391 151.812H12.9012V178.589H16.467Z" fill="black"/>
<path d="M43.4995 179.691C43.4995 171.91 50.693 167.18 64.9603 166.532V166.078C64.9603 164.389 64.1349 163.159 61.1345 163.159C57.1147 163.159 53.355 164.843 50.4371 166.92L45.1875 159.659C48.3653 156.807 53.809 153.629 63.1444 153.629C73.3878 153.629 77.4695 158.425 77.4695 168.216V180.599C77.4695 184.751 77.7295 187.277 78.4435 189.028H65.7321C65.2132 187.393 64.9514 185.687 64.9562 183.971C62.1044 187.538 58.5386 189.548 53.4004 189.548C48.4272 189.548 43.4995 186.514 43.4995 179.691ZM64.9603 178.007V173.078C58.7367 173.272 56.0128 174.894 56.0128 177.553C56.0128 179.237 57.2509 180.029 58.8646 180.029C62.0384 180.017 63.8543 179.043 64.9562 178.007H64.9603Z" fill="black"/>
<path d="M86.9948 178.589V163.481H81.3572V154.277H86.9948V142.608H99.83V154.277H108.711V163.481H99.83V175.737C99.83 179.431 100.738 180.339 104.37 180.339C105.505 180.336 106.636 180.206 107.742 179.951V188.9C107.094 189.094 102.426 189.482 99.9001 189.482C88.0967 189.482 86.9948 185.333 86.9948 178.589Z" fill="black"/>
<path d="M110.981 179.691C110.981 171.91 118.175 167.18 132.442 166.532V166.078C132.442 164.389 131.617 163.159 128.616 163.159C124.597 163.159 120.837 164.843 117.923 166.92L112.669 159.659C115.847 156.807 121.291 153.629 130.626 153.629C140.87 153.629 144.951 158.425 144.951 168.216V180.599C144.951 184.751 145.211 187.277 145.925 189.028H133.218C132.698 187.393 132.435 185.687 132.438 183.971C129.586 187.538 126.021 189.548 120.882 189.548C115.909 189.548 110.981 186.514 110.981 179.691ZM132.442 178.007V173.078C126.219 173.272 123.495 174.894 123.495 177.553C123.495 179.237 124.733 180.029 126.347 180.029C129.52 180.017 131.336 179.043 132.438 178.007H132.442Z" fill="black"/>
<path d="M142.966 140.8H147.749L162.223 183.129H162.351L176.899 140.8H181.418L164.386 189.506H160.003L142.966 140.8Z" fill="black"/>
<path d="M185.355 141.935H190.139V146.781H185.355V141.935ZM185.488 154.776H190.027V189.308H185.488V154.776Z" fill="black"/>
<path d="M194.922 171.989C194.922 159.738 202.763 154.099 210.056 154.099C218.116 154.099 224.142 160.262 224.142 172.055V172.893H199.445C199.507 181.412 204.356 186.196 210.32 186.196C215.495 186.196 218.442 183.967 221.05 179.905L223.869 182.134C220.856 186.984 216.597 189.998 210.043 189.998C202 190.01 194.922 183.785 194.922 171.989ZM219.755 169.301C219.296 162.751 216.152 157.901 209.99 157.901C205.013 157.901 200.361 161.504 199.507 169.301H219.755Z" fill="black"/>
<path d="M224.666 154.755H229.383L234.232 171.856C235.47 176.248 236.263 179.134 237.443 183.587H237.575C238.813 178.671 239.474 176.248 240.72 171.856L245.437 154.755H249.564L254.348 172.187C255.586 176.38 256.246 179.067 257.361 183.587H257.493C258.731 178.935 259.391 176.512 260.637 172.319L265.681 154.755H270.072L259.457 189.288H255.264L247.468 160.922H247.336L239.399 189.288H235.272L224.666 154.755Z" fill="black"/>
<path d="M274.133 171.989C274.133 159.738 281.995 154.099 289.267 154.099C297.327 154.099 303.353 160.262 303.353 172.055V172.893H278.656C278.718 181.412 283.568 186.196 289.531 186.196C294.707 186.196 297.653 183.967 300.262 179.905L303.08 182.134C300.068 186.984 295.808 189.998 289.255 189.998C281.211 190.01 274.133 183.785 274.133 171.989ZM298.966 169.301C298.508 162.751 295.363 157.901 289.201 157.901C284.224 157.901 279.573 161.504 278.718 169.301H298.966Z" fill="black"/>
<path d="M311.871 154.755H316.39V161.57H316.522C319.209 157.31 323.402 154.099 330.216 154.099H331.021L330.558 158.293C330.558 158.293 329.32 158.227 329.184 158.227C323.551 158.227 319.093 161.372 316.39 166.812V189.288H311.871V154.755Z" fill="black"/>
</g>
<defs>
<linearGradient id="paint0_linear_372_2" x1="105.373" y1="49.3135" x2="218.818" y2="49.3135" gradientUnits="userSpaceOnUse">
<stop stop-color="#1F5DA6"/>
<stop offset="1" stop-color="#009DE0"/>
</linearGradient>
<clipPath id="clip0_372_2">
<rect width="331" height="190.01" fill="white"/>
</clipPath>
</defs>
</svg>
