<svg width="652" height="444" viewBox="0 0 652 444" fill="none" xmlns="http://www.w3.org/2000/svg">
<g id="undraw_version_control_re_mg66 (2) 1">
<path id="Vector" d="M59.8846 373.928L57.1332 389.292L108.299 408.59L112.361 385.914L59.8846 373.928Z" fill="#FFB6B6"/>
<path id="Vector_2" d="M65.0287 371.024L59.6094 401.28L59.6092 401.282C58.6928 406.395 56.0153 410.889 52.1655 413.773C48.3158 416.657 43.6091 417.697 39.0807 416.663L38.5259 416.536L47.3989 366.997L65.0287 371.024Z" fill="#2F2E41"/>
<path id="Ellipse 276" d="M117.867 162.302C137.054 162.302 152.608 144.737 152.608 123.069C152.608 101.401 137.054 83.836 117.867 83.836C98.6791 83.836 83.1246 101.401 83.1246 123.069C83.1246 144.737 98.6791 162.302 117.867 162.302Z" fill="#FEB8B8"/>
<path id="Path 1461" d="M150.316 89.222C145.122 79.6971 136.991 72.6786 127.489 69.5175L123.224 73.0322V68.4684C120.942 68.074 118.632 67.922 116.325 68.0146L112.646 71.7744V68.327C107.197 69.0915 101.949 71.1225 97.2301 74.292C92.5117 77.4614 88.4259 81.7005 85.2304 86.7419C77.2394 99.7513 75.8904 117.85 83.7502 130.964C85.9076 123.476 88.5264 116.45 90.6844 108.963C92.3802 109.224 94.0989 109.233 95.7968 108.991L98.4217 102.074L99.1551 108.698C107.291 107.898 119.359 106.14 127.073 104.53L126.322 99.448L130.81 103.671C133.173 103.057 134.576 102.499 134.46 102.073C140.197 112.517 147.217 119.187 152.953 129.631C155.132 114.905 157.64 102.66 150.316 89.222Z" fill="#2F2E41"/>
<path id="Ellipse 260" d="M129.17 379.801C178.575 379.801 218.625 367.15 218.625 351.544C218.625 335.939 178.575 323.288 129.17 323.288C79.7656 323.288 39.7152 335.939 39.7152 351.544C39.7152 367.15 79.7656 379.801 129.17 379.801Z" fill="#2F2E41"/>
<path id="Vector_3" d="M192.587 223.958C191.392 215.841 190.16 207.569 186.819 200.257C184.624 195.468 181.139 190.904 176.441 189.957C175.516 189.864 174.606 189.626 173.739 189.251C172.362 188.502 153.864 176.577 150.924 174.5C148.4 172.717 144.415 169.416 142.405 169.416C140.384 169.366 132.633 171.403 102.38 168.732C97.2907 171.039 92.3628 173.775 87.6376 176.918C87.5402 176.845 56.2374 195.827 55.0613 195.777C52.8342 195.672 50.7641 197.282 49.4873 199.31C48.2108 201.337 47.612 203.848 46.9851 206.275C53.8222 223.469 60.0778 240.685 66.9155 257.88C67.2356 258.527 67.4057 259.256 67.41 259.997C67.2726 260.767 66.9817 261.491 66.5594 262.115C63.2062 268.198 63.3128 275.848 63.6791 282.997C64.0457 290.147 64.499 297.698 61.6698 304.106C60.9003 305.865 59.8995 307.475 59.1676 309.235C57.4536 313.219 56.8342 325.963 57.8353 330.244L183.262 334.302C180.565 325.93 192.587 223.958 192.587 223.958Z" fill="#094682"/>
<path id="Path 1421" d="M36.1433 258.642C35.893 260.686 35.8678 262.758 36.0683 264.809L37.866 293.964C38.0348 296.712 38.2009 299.453 38.4292 302.194C38.8606 307.513 39.5049 312.79 40.3046 318.06C40.3227 318.808 40.6029 319.518 41.0837 320.033C41.5645 320.548 42.2066 320.827 42.8692 320.808C50.7826 322.699 58.9585 322.623 67.0347 322.108C79.3585 321.331 110.888 319.861 112.814 317.036C114.74 314.21 113.618 309.639 111.106 307.354C108.594 305.069 66.9871 299.499 66.9871 299.499C67.3937 295.861 68.62 292.434 69.7834 288.98C71.8731 282.854 73.8248 276.526 73.8624 269.963C73.8999 263.4 71.7104 256.5 66.9496 252.74C63.0334 249.653 57.9914 249.081 53.2192 249.208C49.7471 249.321 43.7479 248.381 40.5766 249.914C38.0669 251.162 36.6122 255.867 36.1433 258.642Z" fill="#FBBEBE"/>
<path id="Path 1423" d="M192.809 324.546C194.892 323.649 197.188 323.973 199.421 324.313C206.609 325.421 213.903 326.559 220.565 329.801C223.693 331.314 226.671 333.334 228.785 336.306C230.661 338.984 231.756 342.262 232.795 345.49L235.198 352.922C236.219 355.714 236.923 358.64 237.293 361.632C238.044 370.526 232.658 378.911 225.883 383.532C219.108 388.152 211.133 389.797 203.363 391.521C195.593 393.245 187.792 395.151 180.054 397.172C176.445 398.23 172.783 399.044 169.088 399.609C160.806 400.668 152.148 399.108 144.278 402.202C141.151 403.439 138.079 405.275 134.835 406.13C132.678 406.642 130.498 407.017 128.304 407.253L113.409 409.174C110.38 409.632 107.331 409.896 104.276 409.965C97.7706 409.965 91.3709 408.226 85.0536 406.486C84.3823 406.353 83.7433 406.062 83.1782 405.631C82.1776 404.741 81.9585 403.166 81.8145 401.739C81.1765 395.424 80.6183 389.101 80.1401 382.772C79.9901 380.716 79.8775 378.491 80.8722 376.761C82.1233 374.643 84.5633 373.977 86.7903 373.567C96.2336 371.823 105.8 371.073 115.366 371.328C119 367.224 124.994 367.203 129.754 364.97C131.506 364.061 133.201 363.021 134.828 361.854C143.343 356.244 152.86 352.848 162.684 351.915C164.608 351.849 166.519 351.541 168.383 350.997C172.067 349.704 175.427 346.186 179.211 347.048C179.68 345.586 180.006 343.628 181.087 342.626C181.622 342.11 182.287 341.764 182.782 341.213C183.827 340.019 183.92 338.14 183.764 336.473C183.607 334.806 183.257 333.096 183.638 331.471C183.797 330.856 184.031 330.268 184.333 329.726C186.203 326.071 189.037 324.192 192.809 324.546Z" fill="#2F2E41"/>
<path id="Path 1430" d="M46.6232 206.798C46.0139 207.519 45.5415 208.372 45.2348 209.306C40.1782 222.176 37.1915 235.959 36.4145 250.01C36.4282 250.696 36.2883 251.374 36.008 251.981C35.7315 252.386 35.4238 252.762 35.0884 253.105C34.796 253.496 34.5747 253.949 34.4372 254.437C34.2997 254.925 34.2487 255.439 34.287 255.949C34.3254 256.459 34.4524 256.956 34.6607 257.411C34.8691 257.866 35.1547 258.27 35.5014 258.6C35.5582 258.654 35.6166 258.706 35.6764 258.756C36.7086 256.563 39.1794 255.846 41.3755 255.655C51.891 254.716 62.1627 260.24 72.7096 259.823C71.9655 256.92 70.8952 254.13 70.2884 251.191C67.6046 238.143 74.2983 223.937 70.1946 211.37C69.3748 208.855 68.0051 206.382 65.8471 205.28C64.9535 204.873 64.0184 204.594 63.0635 204.448C60.3985 203.904 55.0932 201.58 52.5166 202.513C51.5655 202.859 51.1904 203.869 50.4021 204.479C49.2045 205.343 47.6159 205.661 46.6232 206.798Z" fill="#094682"/>
<path id="Path 1421_2" d="M192.662 249.914C189.49 248.381 183.491 249.321 180.019 249.208C175.247 249.081 170.205 249.653 166.289 252.74C161.528 256.5 159.338 263.4 159.376 269.963C159.413 276.526 161.365 282.854 163.455 288.98C164.618 292.434 165.844 295.861 166.251 299.499C166.251 299.499 124.644 305.069 122.132 307.354C119.621 309.639 118.498 314.21 120.424 317.036C122.351 319.861 182.456 322.699 190.369 320.808C191.031 320.827 191.674 320.548 192.154 320.033C192.635 319.518 192.915 318.808 192.934 318.06C193.733 312.79 194.378 307.513 194.809 302.194C195.037 299.453 195.203 296.712 195.372 293.964L197.17 264.809C197.37 262.758 197.345 260.686 197.095 258.642C196.626 255.867 195.171 251.162 192.662 249.914Z" fill="#FBBEBE"/>
<path id="Path 1430_2" d="M182.836 204.479C182.048 203.869 181.673 202.859 180.721 202.513C178.145 201.58 172.84 203.904 170.175 204.448C169.22 204.594 168.285 204.873 167.391 205.28C165.233 206.382 163.863 208.855 163.043 211.37C158.94 223.937 165.633 238.143 162.95 251.191C162.343 254.13 161.273 256.92 160.528 259.823C171.075 260.24 181.347 254.716 191.862 255.655C194.059 255.846 196.529 256.563 197.562 258.756C197.621 258.706 197.68 258.654 197.737 258.6C198.083 258.27 198.369 257.866 198.577 257.411C198.786 256.956 198.913 256.459 198.951 255.949C198.989 255.439 198.938 254.925 198.801 254.437C198.663 253.949 198.442 253.496 198.15 253.105C197.814 252.762 197.507 252.386 197.23 251.981C196.95 251.374 196.81 250.696 196.824 250.01C196.047 235.959 193.06 222.176 188.003 209.306C187.697 208.372 187.224 207.519 186.615 206.798C185.622 205.661 184.034 205.343 182.836 204.479Z" fill="#094682"/>
<path id="Vector_4" d="M200.425 395.86L198.597 411.398L144.655 410.827L147.354 387.894L200.425 395.86Z" fill="#FFB6B6"/>
<path id="Vector_5" d="M214.23 393.899L208.333 444L207.772 443.916C203.192 443.228 199.042 440.515 196.234 436.372C193.426 432.229 192.19 426.996 192.798 421.824L192.798 421.823L196.4 391.223L214.23 393.899Z" fill="#2F2E41"/>
<path id="Path 1427" d="M73.5207 332.409C73.5207 333.115 72.5388 332.409 72.4491 331.652C71.7612 325.937 67.7446 321.225 63.0655 318.936C58.3865 316.648 53.0564 316.527 47.9896 317.071C40.3267 317.89 31.7248 321.204 28.9224 329.292C28.2593 331.183 22.0479 348.02 22.654 351.806C24.2869 361.908 30.4046 370.548 37.8177 376.531C45.2308 382.515 53.8923 386.089 62.5324 389.314C85.3759 397.822 108.813 404.143 132.596 408.211C136.449 408.868 140.34 409.475 144.031 410.874C147.333 412.124 150.424 413.996 153.652 415.466C161.159 418.869 169.235 420.085 177.235 421.28C178.599 421.478 180.163 421.619 181.17 420.573C182.472 419.212 182.041 416.836 181.671 414.879C180.313 407.439 181.452 399.695 184.867 393.15C186.207 390.607 187.948 388 187.695 385.057C187.395 381.624 184.367 379.194 181.352 378.642C178.336 378.091 175.272 378.904 172.243 379.349C171.205 379.618 170.117 379.496 169.146 379.002C168.696 378.659 168.288 378.251 167.933 377.788C165.847 375.515 163.178 374.048 160.307 373.595C157.437 373.142 154.514 373.727 151.956 375.266C150.836 375.972 149.143 374.397 147.978 373.804L134.822 367.078C119.708 359.358 104.52 351.6 88.5304 346.712C87.2545 346.429 86.042 345.859 84.9645 345.037C84.1701 344.331 83.6008 343.374 82.8688 342.586C81.2734 340.884 79.0511 340.205 77.1388 338.997C75.2266 337.789 73.0827 334.831 73.5207 332.409Z" fill="#2F2E41"/>
<path id="Vector_6" d="M107.577 322.2C112.756 322.2 116.954 317.459 116.954 311.611C116.954 305.763 112.756 301.022 107.577 301.022C102.398 301.022 98.2003 305.763 98.2003 311.611C98.2003 317.459 102.398 322.2 107.577 322.2Z" fill="#FBBEBE"/>
<path id="Vector_7" d="M128.34 322.2C133.519 322.2 137.717 317.459 137.717 311.611C137.717 305.763 133.519 301.022 128.34 301.022C123.161 301.022 118.963 305.763 118.963 311.611C118.963 317.459 123.161 322.2 128.34 322.2Z" fill="#FBBEBE"/>
<path id="Vector_8" d="M186.221 335.472H57.3974C55.8934 335.47 54.4514 334.794 53.3879 333.593C52.3243 332.392 51.726 330.764 51.7242 329.066V240.809C51.726 239.111 52.3243 237.482 53.3879 236.281C54.4514 235.08 55.8934 234.405 57.3974 234.403H186.221C187.725 234.405 189.167 235.08 190.231 236.281C191.294 237.482 191.892 239.111 191.894 240.809V329.066C191.892 330.764 191.294 332.392 190.231 333.593C189.167 334.794 187.725 335.47 186.221 335.472Z" fill="#3F3D56"/>
<path id="Ellipse 263" d="M121.497 289.176C123.57 289.176 125.25 287.278 125.25 284.937C125.25 282.596 123.57 280.699 121.497 280.699C119.424 280.699 117.743 282.596 117.743 284.937C117.743 287.278 119.424 289.176 121.497 289.176Z" fill="white"/>
<path id="Vector_9" d="M581.384 159.177H414.012C413.125 159.176 412.273 158.777 411.646 158.068C411.018 157.359 410.665 156.398 410.664 155.395V119.771H412.003V155.395C412.004 155.997 412.216 156.573 412.592 156.999C412.969 157.424 413.48 157.663 414.012 157.664H581.384C581.917 157.663 582.428 157.424 582.804 156.999C583.181 156.573 583.393 155.997 583.394 155.395V119.522H584.733V155.395C584.732 156.398 584.379 157.359 583.751 158.068C583.123 158.777 582.272 159.176 581.384 159.177Z" fill="#3F3D56"/>
<path id="Vector_10" d="M642.057 119.014H248.752V120.527H642.057V119.014Z" fill="#3F3D56"/>
<path id="Ellipse 264" d="M248.781 132.663C255.144 132.663 260.302 126.838 260.302 119.653C260.302 112.467 255.144 106.642 248.781 106.642C242.418 106.642 237.259 112.467 237.259 119.653C237.259 126.838 242.418 132.663 248.781 132.663Z" fill="#094682"/>
<path id="Ellipse 266" d="M365.861 132.663C372.224 132.663 377.382 126.838 377.382 119.653C377.382 112.467 372.224 106.642 365.861 106.642C359.498 106.642 354.339 112.467 354.339 119.653C354.339 126.838 359.498 132.663 365.861 132.663Z" fill="#094682"/>
<path id="Ellipse 268" d="M445.317 170.905C451.681 170.905 456.839 165.08 456.839 157.895C456.839 150.709 451.681 144.884 445.317 144.884C438.954 144.884 433.796 150.709 433.796 157.895C433.796 165.08 438.954 170.905 445.317 170.905Z" fill="#3F3D56"/>
<path id="Ellipse 269" d="M505.722 170.905C512.086 170.905 517.244 165.08 517.244 157.895C517.244 150.709 512.086 144.884 505.722 144.884C499.359 144.884 494.201 150.709 494.201 157.895C494.201 165.08 499.359 170.905 505.722 170.905Z" fill="#CCCCCC"/>
<path id="Ellipse 270" d="M476.451 132.663C482.814 132.663 487.973 126.838 487.973 119.653C487.973 112.467 482.814 106.642 476.451 106.642C470.088 106.642 464.93 112.467 464.93 119.653C464.93 126.838 470.088 132.663 476.451 132.663Z" fill="#094682"/>
<path id="Ellipse 271" d="M640.479 132.663C646.842 132.663 652 126.838 652 119.653C652 112.467 646.842 106.642 640.479 106.642C634.115 106.642 628.957 112.467 628.957 119.653C628.957 126.838 634.115 132.663 640.479 132.663Z" fill="#094682"/>
<path id="Ellipse 272" d="M584.063 132.663C590.426 132.663 595.585 126.838 595.585 119.653C595.585 112.467 590.426 106.642 584.063 106.642C577.7 106.642 572.542 112.467 572.542 119.653C572.542 126.838 577.7 132.663 584.063 132.663Z" fill="#094682"/>
<path id="Rectangle 207" d="M455.746 0H434.375V16.6321H455.746V0Z" fill="#3F3D56"/>
<path id="Rectangle 208" d="M259.55 0H238.18V16.6321H259.55V0Z" fill="#094682"/>
<path id="Rectangle 209" d="M331.935 0H310.564V16.6321H331.935V0Z" fill="#CCCCCC"/>
<path id="Vector_11" d="M284.508 120.527C284.331 120.527 284.16 120.447 284.035 120.305C283.909 120.164 283.839 119.971 283.839 119.771V82.4351C283.84 81.4325 284.193 80.4713 284.821 79.7623C285.448 79.0533 286.3 78.6545 287.188 78.6533H319.789C319.966 78.6533 320.137 78.733 320.262 78.8749C320.388 79.0167 320.458 79.2091 320.458 79.4097C320.458 79.6103 320.388 79.8027 320.262 79.9445C320.137 80.0864 319.966 80.1661 319.789 80.1661H287.188C286.655 80.1667 286.144 80.406 285.767 80.8314C285.391 81.2568 285.179 81.8335 285.178 82.4351V119.771C285.178 119.971 285.108 120.164 284.982 120.305C284.856 120.447 284.686 120.527 284.508 120.527Z" fill="#3F3D56"/>
<path id="Ellipse 265" d="M321.321 92.1378C327.684 92.1378 332.842 86.3126 332.842 79.1269C332.842 71.9412 327.684 66.1161 321.321 66.1161C314.958 66.1161 309.799 71.9412 309.799 79.1269C309.799 86.3126 314.958 92.1378 321.321 92.1378Z" fill="#E6E6E6"/>
<path id="Vector_12" d="M542.372 119.771H541.032V82.4351C541.033 81.4325 541.386 80.4713 542.014 79.7623C542.642 79.0533 543.493 78.6545 544.381 78.6533H576.982V80.1661H544.381C543.848 80.1667 543.338 80.406 542.961 80.8314C542.584 81.2568 542.372 81.8335 542.372 82.4351V119.771Z" fill="#3F3D56"/>
<path id="Ellipse 265_2" d="M578.514 92.1378C584.877 92.1378 590.036 86.3126 590.036 79.1269C590.036 71.9412 584.877 66.1161 578.514 66.1161C572.151 66.1161 566.993 71.9412 566.993 79.1269C566.993 86.3126 572.151 92.1378 578.514 92.1378Z" fill="#E6E6E6"/>
</g>
</svg>
